<mxfile host="Electron" modified="2023-09-03T12:54:56.358Z" agent="Mozilla/5.0 (Windows NT 10.0; Win64; x64) AppleWebKit/537.36 (KHTML, like Gecko) draw.io/21.6.8 Chrome/114.0.5735.289 Electron/25.5.0 Safari/537.36" etag="DbVXS_Zi2GkuvXl4svUV" version="21.6.8" type="device">
  <diagram name="Страница 1" id="MpErd77HUAm-3VkHsq_B">
    <mxGraphModel dx="794" dy="476" grid="1" gridSize="11" guides="1" tooltips="1" connect="1" arrows="1" fold="1" page="1" pageScale="1" pageWidth="827" pageHeight="1169" math="0" shadow="0">
      <root>
        <mxCell id="0" />
        <mxCell id="1" parent="0" />
        <mxCell id="sMpCeDaJBcDkP9DrCdvv-1" value="books.model.Book" style="swimlane;fontStyle=1;align=center;verticalAlign=top;childLayout=stackLayout;horizontal=1;startSize=26;horizontalStack=0;resizeParent=1;resizeParentMax=0;resizeLast=0;collapsible=1;marginBottom=0;whiteSpace=wrap;html=1;" parent="1" vertex="1">
          <mxGeometry x="88" y="88" width="264" height="216" as="geometry" />
        </mxCell>
        <mxCell id="sMpCeDaJBcDkP9DrCdvv-7" value="- isbn: long" style="text;strokeColor=none;fillColor=none;align=left;verticalAlign=top;spacingLeft=4;spacingRight=4;overflow=hidden;rotatable=0;points=[[0,0.5],[1,0.5]];portConstraint=eastwest;whiteSpace=wrap;html=1;" parent="sMpCeDaJBcDkP9DrCdvv-1" vertex="1">
          <mxGeometry y="26" width="264" height="26" as="geometry" />
        </mxCell>
        <mxCell id="sMpCeDaJBcDkP9DrCdvv-6" value="- yearOfPublishing: int" style="text;strokeColor=none;fillColor=none;align=left;verticalAlign=top;spacingLeft=4;spacingRight=4;overflow=hidden;rotatable=0;points=[[0,0.5],[1,0.5]];portConstraint=eastwest;whiteSpace=wrap;html=1;" parent="sMpCeDaJBcDkP9DrCdvv-1" vertex="1">
          <mxGeometry y="52" width="264" height="26" as="geometry" />
        </mxCell>
        <mxCell id="sMpCeDaJBcDkP9DrCdvv-2" value="- author: String" style="text;strokeColor=none;fillColor=none;align=left;verticalAlign=top;spacingLeft=4;spacingRight=4;overflow=hidden;rotatable=0;points=[[0,0.5],[1,0.5]];portConstraint=eastwest;whiteSpace=wrap;html=1;" parent="sMpCeDaJBcDkP9DrCdvv-1" vertex="1">
          <mxGeometry y="78" width="264" height="26" as="geometry" />
        </mxCell>
        <mxCell id="sMpCeDaJBcDkP9DrCdvv-3" value="" style="line;strokeWidth=1;fillColor=none;align=left;verticalAlign=middle;spacingTop=-1;spacingLeft=3;spacingRight=3;rotatable=0;labelPosition=right;points=[];portConstraint=eastwest;strokeColor=inherit;" parent="sMpCeDaJBcDkP9DrCdvv-1" vertex="1">
          <mxGeometry y="104" width="264" height="8" as="geometry" />
        </mxCell>
        <mxCell id="sMpCeDaJBcDkP9DrCdvv-10" value="constructor for all fields" style="text;strokeColor=none;fillColor=none;align=left;verticalAlign=top;spacingLeft=4;spacingRight=4;overflow=hidden;rotatable=0;points=[[0,0.5],[1,0.5]];portConstraint=eastwest;whiteSpace=wrap;html=1;" parent="sMpCeDaJBcDkP9DrCdvv-1" vertex="1">
          <mxGeometry y="112" width="264" height="26" as="geometry" />
        </mxCell>
        <mxCell id="sMpCeDaJBcDkP9DrCdvv-9" value="getters and setters for all fields" style="text;strokeColor=none;fillColor=none;align=left;verticalAlign=top;spacingLeft=4;spacingRight=4;overflow=hidden;rotatable=0;points=[[0,0.5],[1,0.5]];portConstraint=eastwest;whiteSpace=wrap;html=1;" parent="sMpCeDaJBcDkP9DrCdvv-1" vertex="1">
          <mxGeometry y="138" width="264" height="26" as="geometry" />
        </mxCell>
        <mxCell id="sMpCeDaJBcDkP9DrCdvv-8" value="toString" style="text;strokeColor=none;fillColor=none;align=left;verticalAlign=top;spacingLeft=4;spacingRight=4;overflow=hidden;rotatable=0;points=[[0,0.5],[1,0.5]];portConstraint=eastwest;whiteSpace=wrap;html=1;" parent="sMpCeDaJBcDkP9DrCdvv-1" vertex="1">
          <mxGeometry y="164" width="264" height="26" as="geometry" />
        </mxCell>
        <mxCell id="sMpCeDaJBcDkP9DrCdvv-4" value="equals by isbn" style="text;strokeColor=none;fillColor=none;align=left;verticalAlign=top;spacingLeft=4;spacingRight=4;overflow=hidden;rotatable=0;points=[[0,0.5],[1,0.5]];portConstraint=eastwest;whiteSpace=wrap;html=1;" parent="sMpCeDaJBcDkP9DrCdvv-1" vertex="1">
          <mxGeometry y="190" width="264" height="26" as="geometry" />
        </mxCell>
        <mxCell id="sMpCeDaJBcDkP9DrCdvv-12" value="&lt;p style=&quot;margin:0px;margin-top:4px;text-align:center;&quot;&gt;&lt;i&gt;&amp;lt;&amp;lt;Interface&amp;gt;&amp;gt;&lt;/i&gt;&lt;br&gt;&lt;b&gt;books.dao.Library&lt;/b&gt;&lt;/p&gt;&lt;hr size=&quot;1&quot;&gt;&lt;p style=&quot;margin:0px;margin-left:4px;&quot;&gt;addBook(bookBook):boolean&lt;/p&gt;&lt;p style=&quot;margin:0px;margin-left:4px;&quot;&gt;removeBook(isbn:long):Book&lt;/p&gt;&lt;p style=&quot;margin:0px;margin-left:4px;&quot;&gt;findBookByIsbn(isbn:long):Book&lt;/p&gt;&lt;p style=&quot;margin:0px;margin-left:4px;&quot;&gt;findBookByAuthor(author:String):Book[]&lt;/p&gt;&lt;p style=&quot;margin:0px;margin-left:4px;&quot;&gt;size():int&lt;/p&gt;&lt;hr size=&quot;1&quot;&gt;&lt;p style=&quot;margin:0px;margin-left:4px;&quot;&gt;&lt;br&gt;&lt;/p&gt;" style="verticalAlign=top;align=left;overflow=fill;fontSize=12;fontFamily=Helvetica;html=1;whiteSpace=wrap;" parent="1" vertex="1">
          <mxGeometry x="440" y="88" width="264" height="218" as="geometry" />
        </mxCell>
        <mxCell id="sMpCeDaJBcDkP9DrCdvv-14" value="&lt;p style=&quot;margin:0px;margin-top:4px;text-align:center;&quot;&gt;&lt;b&gt;books.dao.LibraryImpl&lt;/b&gt;&lt;/p&gt;&lt;hr size=&quot;1&quot;&gt;&lt;p style=&quot;margin:0px;margin-left:4px;&quot;&gt;-books:Book[]&lt;br&gt;-size:int&lt;/p&gt;&lt;hr size=&quot;1&quot;&gt;&lt;p style=&quot;margin:0px;margin-left:4px;&quot;&gt;+LibraryImpl(capacity:int)&lt;br&gt;&lt;br&gt;&lt;/p&gt;" style="verticalAlign=top;align=left;overflow=fill;fontSize=12;fontFamily=Helvetica;html=1;whiteSpace=wrap;" parent="1" vertex="1">
          <mxGeometry x="440" y="396" width="264" height="140" as="geometry" />
        </mxCell>
        <mxCell id="sMpCeDaJBcDkP9DrCdvv-19" value="" style="endArrow=open;endFill=1;endSize=12;html=1;rounded=0;exitX=0;exitY=0.5;exitDx=0;exitDy=0;dashed=1;" parent="1" source="sMpCeDaJBcDkP9DrCdvv-12" edge="1">
          <mxGeometry width="160" relative="1" as="geometry">
            <mxPoint x="429" y="220" as="sourcePoint" />
            <mxPoint x="354" y="198" as="targetPoint" />
          </mxGeometry>
        </mxCell>
        <mxCell id="sMpCeDaJBcDkP9DrCdvv-20" value="" style="endArrow=open;endFill=1;endSize=12;html=1;rounded=0;entryX=0.5;entryY=1;entryDx=0;entryDy=0;exitX=0.5;exitY=0;exitDx=0;exitDy=0;dashed=1;" parent="1" source="sMpCeDaJBcDkP9DrCdvv-14" target="sMpCeDaJBcDkP9DrCdvv-12" edge="1">
          <mxGeometry width="160" relative="1" as="geometry">
            <mxPoint x="572" y="374" as="sourcePoint" />
            <mxPoint x="704" y="352" as="targetPoint" />
          </mxGeometry>
        </mxCell>
      </root>
    </mxGraphModel>
  </diagram>
</mxfile>
